<?xml version="1.0" encoding="UTF-8"?>
<svg xmlns="http://www.w3.org/2000/svg" xmlns:xlink="http://www.w3.org/1999/xlink" width="50px" height="50px" viewBox="0 0 30 30" version="1.1">
<g id="surface1">
<path style=" stroke:none;fill-rule:nonzero;fill:rgb(0%,0%,0%);fill-opacity:1;" d="M 9.757812 2.542969 C 7.046875 2.570312 4.347656 3.214844 1.929688 4.417969 C 0.808594 4.945312 0.101562 5.300781 0.105469 5.597656 C 0.113281 6.191406 0.433594 5.984375 1.1875 5.582031 C 3.265625 4.335938 6.125 3.433594 8.566406 3.261719 L 9.171875 3.21875 L 8.851562 3.492188 C 7.027344 5.058594 5.628906 6.832031 4.632812 8.84375 C 3.890625 10.351562 3.449219 11.734375 3.195312 13.378906 C 3.046875 14.351562 3.046875 16.316406 3.199219 17.214844 C 3.839844 21.019531 5.894531 24.015625 8.867188 25.6875 C 10.0625 26.289062 11.546875 26.632812 12.527344 26.527344 C 13.480469 26.425781 14.253906 25.800781 15.148438 25.523438 C 15.914062 25.296875 16.746094 25.46875 17.453125 25.796875 C 18.328125 26.136719 19.125 26.675781 20.058594 26.847656 C 21.132812 27.082031 22.207031 26.683594 23.152344 26.199219 C 24.054688 25.804688 24.964844 25.167969 25.996094 25.359375 C 27.3125 25.535156 28.210938 26.707031 29.5 26.960938 C 29.761719 27.0625 30.058594 26.78125 29.925781 26.519531 C 29.792969 26.324219 29.53125 26.355469 29.332031 26.269531 C 28.46875 25.960938 27.789062 25.285156 26.921875 24.976562 C 26.054688 24.613281 25.035156 24.617188 24.1875 25.03125 C 23.027344 25.453125 21.984375 26.308594 20.699219 26.300781 C 19.199219 26.222656 18.027344 25.113281 16.574219 24.863281 C 16.066406 24.796875 15.542969 24.777344 15.042969 24.910156 C 14.09375 25.183594 13.277344 25.851562 12.269531 25.941406 C 11.359375 25.980469 10.488281 25.742188 9.539062 25.320312 C 8.59375 24.898438 7.808594 24.226562 6.980469 23.398438 C 5.433594 21.847656 4.457031 19.992188 3.953125 17.636719 C 3.796875 16.894531 3.785156 16.722656 3.78125 15.3125 C 3.78125 14.007812 3.800781 13.6875 3.921875 13.0625 C 4.207031 11.5625 4.601562 10.40625 5.304688 9 C 6.480469 6.648438 8.304688 4.605469 10.652344 3.007812 L 11.304688 2.5625 L 10.300781 2.542969 C 10.121094 2.539062 9.941406 2.539062 9.757812 2.542969 Z M 9.757812 2.542969 "/>
<path style="fill-rule:nonzero;fill:rgb(100%,100%,100%);fill-opacity:1;stroke-width:6.16366;stroke-linecap:square;stroke-linejoin:bevel;stroke:rgb(0%,0%,0%);stroke-opacity:1;stroke-miterlimit:4;" d="M 35.429688 85.078125 C 49.414062 74.960938 47.617188 74.570312 139.53125 153.203125 C 192.226562 198.28125 208.59375 224.84375 216.445312 247.1875 C 188.632812 238.046875 155.3125 222.851562 106.210938 174.335938 C 21.679688 90.742188 21.757812 94.882812 35.429688 85.078125 Z M 35.429688 85.078125 " transform="matrix(0.1,0,0,0.1,0,0)"/>
<path style=" stroke:none;fill-rule:nonzero;fill:rgb(0%,0%,0%);fill-opacity:1;" d="M 20.183594 2.011719 C 21.214844 1.867188 22.261719 2.582031 22.523438 3.585938 C 22.789062 4.460938 22.386719 5.449219 21.640625 5.949219 C 21.082031 6.308594 20.355469 6.421875 19.726562 6.179688 C 19.035156 5.949219 18.507812 5.339844 18.351562 4.636719 C 18.179688 4.113281 18.339844 3.546875 18.585938 3.074219 C 18.902344 2.484375 19.535156 2.113281 20.183594 2.011719 Z M 20.183594 2.011719 "/>
<path style=" stroke:none;fill-rule:nonzero;fill:rgb(0%,0%,0%);fill-opacity:1;" d="M 27.882812 6.566406 C 28.316406 5.527344 28.808594 4.511719 29.109375 3.425781 C 29.246094 4.25 29.132812 5.089844 29.148438 5.917969 C 29.167969 6.925781 29.285156 8.03125 28.738281 8.929688 C 28.550781 9.28125 28.175781 9.492188 27.789062 9.554688 C 26.792969 9.660156 25.785156 9.492188 24.828125 9.210938 C 24.199219 9.027344 23.558594 8.800781 23.054688 8.371094 C 22.71875 8.09375 22.542969 7.609375 22.71875 7.195312 C 22.859375 6.800781 23.3125 6.613281 23.707031 6.632812 C 24.46875 6.585938 25.171875 6.90625 25.871094 7.152344 C 26.324219 7.332031 26.742188 7.578125 27.183594 7.78125 C 27.417969 7.375 27.699219 6.996094 27.882812 6.566406 Z M 27.882812 6.566406 "/>
<path style=" stroke:none;fill-rule:nonzero;fill:rgb(0%,0%,0%);fill-opacity:1;" d="M 8.414062 5.902344 C 10.28125 5.976562 12.152344 6.1875 14.019531 6.003906 C 15.15625 5.957031 16.300781 5.734375 17.4375 5.933594 C 18.015625 6.089844 18.3125 6.929688 17.878906 7.375 C 17.675781 7.628906 17.363281 7.777344 17.039062 7.800781 C 16.214844 7.921875 15.390625 7.714844 14.570312 7.640625 C 13.351562 7.425781 12.160156 7.09375 10.960938 6.785156 C 10.070312 6.632812 9.253906 6.222656 8.414062 5.902344 Z M 8.414062 5.902344 "/>
<path style=" stroke:none;fill-rule:nonzero;fill:rgb(0%,0%,0%);fill-opacity:1;" d="M 13.433594 9.34375 C 14.347656 8.734375 15.292969 8.054688 16.421875 7.964844 C 16.992188 7.898438 17.527344 8.230469 17.859375 8.671875 C 18.46875 9.566406 18.910156 10.566406 19.21875 11.601562 C 19.6875 11.140625 20.199219 10.578125 20.910156 10.578125 C 21.296875 10.621094 21.726562 10.769531 21.921875 11.136719 C 22.128906 11.472656 22.074219 11.882812 22.019531 12.253906 C 21.875 12.960938 21.5 13.597656 21.019531 14.125 C 20.105469 15.132812 18.996094 15.929688 17.871094 16.683594 C 16.976562 17.296875 16.015625 17.800781 15.046875 18.285156 C 15.648438 17.128906 16.441406 16.078125 17.011719 14.902344 C 16.917969 14.5 16.648438 14.15625 16.558594 13.742188 C 16.234375 12.730469 16.085938 11.671875 15.914062 10.625 C 14.152344 11.078125 12.457031 11.75 10.691406 12.203125 C 10.222656 12.324219 9.757812 12.46875 9.277344 12.566406 C 9.746094 12.109375 10.210938 11.640625 10.710938 11.214844 C 11.613281 10.585938 12.535156 9.976562 13.433594 9.34375 Z M 13.433594 9.34375 "/>
</g>
</svg>
