<?xml version="1.0" standalone="no"?>
<!DOCTYPE svg PUBLIC "-//W3C//DTD SVG 1.0//EN" "http://www.w3.org/TR/2001/REC-SVG-20010904/DTD/svg10.dtd">
<svg xmlns="http://www.w3.org/2000/svg" xmlns:xlink="http://www.w3.org/1999/xlink" id="body_1" width="30" height="30">

<g transform="matrix(1 0 0 1 0 0)">
    <path d="M97.58984 25.416018C 70.456116 25.702253 43.4698 32.16031 19.316406 44.1875C 8.084071 49.455414 1.0279726 53.021538 1.0566406 55.970703C 1.1144263 61.915287 4.3436403 59.831074 11.855469 55.80664C 32.64209 43.34617 61.26651 34.353626 85.67578 32.617188L85.67578 32.617188L91.70117 32.189453L88.5293 34.908203C 70.26205 50.57134 56.27595 68.318924 46.345703 88.43164C 38.88996 103.53254 34.510845 117.34435 31.972656 133.7793C 30.470224 143.50784 30.482101 163.16153 31.994137 172.15234C 38.394764 210.21144 58.945385 240.1707 88.66016 256.85742C 100.61562 262.87784 115.47217 266.31882 125.26561 265.26758C 134.80663 264.25458 142.52805 257.99673 151.49805 255.21875C 159.15004 252.95575 167.45491 254.67952 174.54492 257.97852C 183.26292 261.3775 191.26894 266.76428 200.58594 268.48828C 211.34395 270.8173 222.08606 266.82446 231.53906 261.98047C 240.54607 258.05447 249.6438 251.67517 259.9668 253.57617C 273.1398 255.36118 282.109 267.05508 295 269.6211C 297.614 270.6101 300.58273 267.82907 299.26172 265.20508C 297.94272 263.25607 295.3039 263.542 293.3379 262.70898C 284.67188 259.62097 277.8849 252.86053 269.2129 249.76953C 260.5589 246.11353 250.35886 246.18532 241.88086 250.32031C 230.25485 254.51932 219.83461 263.0887 206.97461 263.01172C 192.00162 262.2437 180.27881 251.14139 165.75781 248.65039C 160.68181 247.9614 155.41193 247.78189 150.41992 249.08789C 140.92293 251.8469 132.76627 258.50635 122.69727 259.40234C 113.592575 259.80313 104.890785 257.42575 95.40546 253.20964C 85.92013 248.99348 78.09839 242.27155 69.820305 233.98438C 54.326538 218.47359 44.57088 199.9051 39.548824 176.36914C 37.960842 168.92702 37.835175 167.24463 37.830074 153.125C 37.825172 140.07877 38.024364 136.86069 39.216793 130.60938C 42.078724 115.60562 46.009907 104.0517 53.029293 90.01758C 64.80694 66.47009 83.038956 46.04403 106.53125 30.080078L106.53125 30.080078L113.06445 25.640625L103.017586 25.441406C 101.20815 25.405457 99.39876 25.396936 97.58984 25.416016L97.58984 25.416016L97.58984 25.416018z" stroke="none" fill="#000000" fill-rule="nonzero" />
    <path d="M35.411686 85.06608C 49.428696 74.98033 47.597717 74.574684 139.53871 153.19728C 192.24101 198.26521 208.60953 224.832 216.45477 247.1763C 188.63771 238.05023 155.29861 222.8702 106.22538 174.35503C 21.668055 90.75924 21.751995 94.8947 35.411686 85.06608z" stroke="#000000" stroke-width="6.16366" stroke-linecap="round" fill="#FFFFFF" fill-rule="nonzero" />
    <path d="M201.854 20.10899C 212.16 18.679989 222.633 25.82399 225.252 35.85899C 227.909 44.59099 223.862 54.47599 216.41699 59.50599C 210.812 63.10299 203.54099 64.206985 197.262 61.779987C 190.37 59.49199 185.094 53.414986 183.525 46.357986C 181.79 41.121986 183.392 35.468987 185.86699 30.753986C 189.03499 24.835987 195.33899 21.126987 201.85399 20.108988L201.85399 20.108988L201.854 20.10899z" stroke="none" fill="#000000" fill-rule="nonzero" />
    <path d="M278.84402 65.65699C 283.157 55.26999 288.088 45.11699 291.09003 34.244987C 292.46103 42.510986 291.32202 50.88199 291.49603 59.19899C 291.66702 69.26499 292.86304 80.31299 287.38504 89.315994C 285.50204 92.827995 281.75604 94.938995 277.90604 95.545C 267.92603 96.604 257.86505 94.936 248.29704 92.105995C 242.01004 90.259995 235.59004 88.002 230.52904 83.696C 227.17204 80.957 225.42404 76.091995 227.19304 71.969C 228.58904 67.989 233.11504 66.124 237.08203 66.333C 244.68103 65.874 251.71603 69.049 258.70703 71.524C 263.22702 73.304 267.43402 75.770004 271.84003 77.803C 274.17 73.754 277.002 69.974 278.84402 65.657L278.84402 65.657L278.84402 65.65699z" stroke="none" fill="#000000" fill-rule="nonzero" />
    <path d="M84.14401 59.00399C 102.80401 59.77799 121.51001 61.85799 140.17601 60.04699C 151.557 59.56799 163.02701 57.32899 174.37701 59.34099C 180.17502 60.882988 183.12102 69.30199 178.79901 73.75599C 176.757 76.27299 173.61601 77.76599 170.41 78.025986C 162.129 79.22598 153.906 77.14198 145.688 76.388985C 133.509 74.27499 121.586006 70.930984 109.622 67.86298C 100.698 66.30898 92.531006 62.233982 84.144005 59.003983L84.144005 59.003983L84.14401 59.00399z" stroke="none" fill="#000000" fill-rule="nonzero" />
    <path d="M134.34901 93.42499C 143.47601 87.358986 152.93602 80.53699 164.22101 79.637985C 169.93501 78.96499 175.27101 82.304985 178.60101 86.720985C 184.68001 95.66399 189.11902 105.64499 192.18402 115.998985C 196.86102 111.388985 201.99402 105.76698 209.09903 105.792984C 212.96803 106.205986 217.27103 107.70399 219.20403 111.36398C 221.28802 114.72398 220.74103 118.845985 220.20602 122.555984C 218.76303 129.59999 214.99303 135.96999 210.19803 141.25398C 201.06104 151.31898 189.95203 159.30199 178.70503 166.82498C 169.77603 172.96399 160.15204 177.99698 150.47603 182.83498C 156.47102 171.27197 164.42603 160.76198 170.12402 149.03798C 169.19102 145.00198 166.47603 141.54597 165.60503 137.43997C 162.35303 127.28897 160.85703 116.724976 159.15703 106.23497C 141.53603 110.77297 124.55703 117.51497 106.92103 122.01397C 102.21003 123.22697 97.560036 124.68897 92.78903 125.65997C 97.479034 121.08297 102.095024 116.40097 107.10103 112.16597C 116.13203 105.84597 125.34003 99.77797 134.34903 93.42497L134.34903 93.42497L134.34901 93.42499z" stroke="none" fill="#000000" fill-rule="nonzero" />
</g>
</svg>
